Coordinates
version=1
nRows=20
nColumns=38
inDegrees=no

Units are S.I. units (second, meters, Newtons, ...)
If the header above contains a line with 'inDegrees', this indicates whether rotational values are in degrees (yes) or radians (no).

endheader
time	pelvis_tilt	pelvis_list	pelvis_rotation	pelvis_tx	pelvis_ty	pelvis_tz	hip_flexion_r	hip_adduction_r	hip_rotation_r	knee_angle_r	ankle_angle_r	subtalar_angle_r	mtp_angle_r	hip_flexion_l	hip_adduction_l	hip_rotation_l	knee_angle_l	ankle_angle_l	subtalar_angle_l	mtp_angle_l	lumbar_extension	lumbar_bending	lumbar_rotation	arm_flex_r	arm_add_r	arm_rot_r	elbow_flex_r	pro_sup_r	wrist_flex_r	wrist_dev_r	arm_flex_l	arm_add_l	arm_rot_l	elbow_flex_l	pro_sup_l	wrist_flex_l	wrist_dev_l
15	2.68457	1.40897	-1.02502	0.769364	-0.752575	0.985485	-0.118696	0.101194	-0.416855	0.254105	0.164584	0	0	0.0434054	-0.088253	0.0229745	0.32379	0.0669395	0	0	-0.292884	0.169656	-0.0258358	0.616577	-0.284346	0.390051	1.4204	1.5708	0	0	0.741139	-0.125655	0.258343	1.06001	0.840237	0	0
15.01	2.68858	1.42026	-1.09398	0.780083	-0.748682	0.986151	-0.114138	0.100988	-0.338533	0.247829	0.159866	0	0	0.0412652	-0.102318	-0.0832875	0.333941	0.0782926	0	0	-0.280588	0.134179	0.0371538	0.582655	-0.270582	0.369581	1.42742	1.5708	0	0	0.723725	-0.13618	0.265569	1.07069	0.843189	0	0
15.02	2.68641	1.42029	-1.08891	0.779819	-0.74899	0.986058	-0.113455	0.101631	-0.340035	0.247992	0.159876	0	0	0.0406027	-0.102877	-0.0846655	0.332102	0.0792648	0	0	-0.278715	0.135419	0.0360322	0.572996	-0.272803	0.365149	1.44124	1.5708	0	0	0.717498	-0.137272	0.265842	1.07752	0.8438	0	0
15.03	2.69405	1.41964	-1.09476	0.779541	-0.749151	0.986097	-0.114167	0.100815	-0.341331	0.248657	0.160433	0	0	0.0376839	-0.102179	-0.0875096	0.328352	0.079414	0	0	-0.278143	0.135489	0.0354129	0.563568	-0.274684	0.360879	1.45487	1.5708	0	0	0.71071	-0.138468	0.265502	1.08461	0.844363	0	0
15.04	2.70162	1.41948	-1.10038	0.779294	-0.749372	0.986103	-0.113812	0.0996317	-0.34309	0.250307	0.161231	0	0	0.0355441	-0.101169	-0.0891889	0.324324	0.0782315	0	0	-0.277454	0.13523	0.0342561	0.55454	-0.275939	0.356329	1.46798	1.5708	0	0	0.703754	-0.140079	0.264371	1.09251	0.845223	0	0
15.05	2.70798	1.41947	-1.10488	0.779091	-0.749567	0.986078	-0.113178	0.098601	-0.34464	0.252252	0.162428	0	0	0.0341612	-0.100207	-0.0897863	0.321007	0.0759601	0	0	-0.276631	0.135024	0.032761	0.54593	-0.276832	0.352524	1.48065	1.5708	0	0	0.696332	-0.142128	0.26213	1.10181	0.846233	0	0
15.06	2.71383	1.41928	-1.10922	0.77892	-0.749712	0.98606	-0.112705	0.0976741	-0.345982	0.254158	0.163408	0	0	0.0331183	-0.0994703	-0.0904592	0.318809	0.0741273	0	0	-0.275973	0.13481	0.0315062	0.537522	-0.277749	0.34916	1.49286	1.5708	0	0	0.688672	-0.144264	0.259262	1.11223	0.847139	0	0
15.07	2.72075	1.41871	-1.11474	0.778735	-0.749844	0.986078	-0.112623	0.0966469	-0.347661	0.256164	0.164249	0	0	0.0318151	-0.0986585	-0.0901739	0.317344	0.0730612	0	0	-0.275888	0.134587	0.0301607	0.529721	-0.278754	0.346271	1.5042	1.5708	0	0	0.680478	-0.146554	0.255791	1.12372	0.848143	0	0
15.08	2.69561	1.4169	-1.09073	0.777971	-0.750698	0.986562	-0.11429	0.10053	-0.355229	0.248749	0.157733	0	0	0.0326176	-0.102041	-0.0889034	0.317064	0.0714987	0	0	-0.277672	0.141656	0.0312339	0.526124	-0.282758	0.346896	1.51478	1.5708	0	0	0.670655	-0.145152	0.244703	1.13625	0.85308	0	0
15.09	2.75327	1.42554	-1.13702	0.776501	-0.752486	0.986827	-0.10443	0.0863824	-0.367548	0.256942	0.160979	0	0	0.0480214	-0.098203	-0.144287	0.329161	0.0711707	0	0	-0.275546	0.132753	0.0184997	0.521637	-0.282258	0.343433	1.52218	1.5708	0	0	0.665606	-0.147233	0.240202	1.1463	0.85401	0	0
15.1	2.71455	1.41461	-1.10757	0.777758	-0.750586	0.98664	-0.116907	0.0987225	-0.357139	0.251316	0.159856	0	0	0.0296096	-0.100325	-0.0868674	0.31806	0.0733924	0	0	-0.278713	0.140461	0.0287874	0.511596	-0.284431	0.342697	1.53317	1.5708	0	0	0.652219	-0.14987	0.23622	1.16246	0.857235	0	0
15.11	2.77167	1.42276	-1.15392	0.776331	-0.752242	0.986911	-0.107693	0.0848442	-0.36915	0.258991	0.162643	0	0	0.0449169	-0.0967615	-0.142033	0.331092	0.0735383	0	0	-0.276824	0.131701	0.0167964	0.506971	-0.284069	0.339643	1.5397	1.5708	0	0	0.647661	-0.151049	0.231791	1.17081	0.857923	0	0
15.12	2.75711	1.40479	-1.14762	0.777823	-0.750455	0.986917	-0.129739	0.0972297	-0.360063	0.251752	0.162382	0	0	0.0183884	-0.0987777	-0.0848288	0.321012	0.0765284	0	0	-0.292506	0.135444	0.0194937	0.504104	-0.28268	0.345108	1.54879	1.5708	0	0	0.646521	-0.154492	0.237077	1.35195	0.857923	0	0
15.13	2.82488	1.41917	-1.20352	0.776721	-0.750959	0.986545	-0.1121	0.0790295	-0.362971	0.268928	0.171757	0	0	0.0387745	-0.0915274	-0.140066	0.334423	0.0769436	0	0	-0.278362	0.12367	0.01014	0.490564	-0.283324	0.33774	1.5544	1.5708	0	0	0.625789	-0.161354	0.22756	1.21072	0.859037	0	0
15.14	2.74325	1.40901	-1.13519	0.777407	-0.749642	0.986713	-0.124497	0.096965	-0.356252	0.253491	0.163646	0	0	0.0246523	-0.0984806	-0.082933	0.325075	0.076723	0	0	-0.280218	0.139087	0.0283559	0.480495	-0.291978	0.337232	1.5649	1.5708	0	0	0.619048	-0.153155	0.222313	1.20368	0.858413	0	0
15.15	2.75116	1.40766	-1.14356	0.777344	-0.749257	0.986744	-0.126421	0.0960876	-0.355703	0.254427	0.165153	0	0	0.0231015	-0.0977764	-0.082259	0.326665	0.0767596	0	0	-0.280358	0.138493	0.0290917	0.472596	-0.294371	0.336745	1.57109	1.5708	0	0	0.611897	-0.153509	0.22059	1.21143	0.857926	0	0
15.16	2.75867	1.40637	-1.1519	0.777332	-0.748848	0.986784	-0.12805	0.0950634	-0.354893	0.255988	0.16733	0	0	0.0217122	-0.0971215	-0.0817892	0.328598	0.0769248	0	0	-0.280638	0.137763	0.0301419	0.464725	-0.296634	0.336209	1.57698	1.5708	0	0	0.604582	-0.153609	0.217772	1.22012	0.857663	0	0
15.17	2.76493	1.40497	-1.15912	0.777308	-0.748418	0.986817	-0.129746	0.0942265	-0.354014	0.257435	0.169131	0	0	0.020516	-0.0965988	-0.0808475	0.33113	0.0778827	0	0	-0.281132	0.137249	0.031622	0.456939	-0.298875	0.334998	1.58267	1.5708	0	0	0.597287	-0.153316	0.21446	1.2293	0.857724	0	0
15.18	2.76957	1.40333	-1.1648	0.777295	-0.747965	0.986864	-0.131836	0.0938858	-0.353064	0.258287	0.17019	0	0	0.0193178	-0.0964213	-0.0796129	0.334026	0.0794767	0	0	-0.281844	0.137054	0.0332745	0.449562	-0.301144	0.333974	1.5879	1.5708	0	0	0.589839	-0.153134	0.210947	1.23878	0.85803	0	0
15.19	2.77461	1.4016	-1.17098	0.777309	-0.747466	0.986942	-0.134379	0.0936052	-0.351984	0.258562	0.17086	0	0	0.0177933	-0.0960897	-0.0781063	0.3365	0.0808428	0	0	-0.282513	0.136845	0.0343618	0.443151	-0.303387	0.334181	1.59155	1.5708	0	0	0.582182	-0.153694	0.207566	1.2483	0.85857	0	0
